# xmcd
#
# Track frame offsets:
# 150
# 16038
# 29563
# 42224
# 53133
# 65643
# 79193
# 89407
# 105238
# 116610
#
# Disc length: 1745 seconds
#
#
# Revision: 2
# Processed by: cddbd v1.5.1PL2 Copyright (c) Steve Scherf et al.
# Submitted via: FreeRIP 2.944 
#
DISCID=7706cf0a
DTITLE=Ronnie McDowell - Unchained Melody
DYEAR=1991
DGENRE=Country
TTITLE0=Unchained Melody
TTITLE1=Paralyzed
TTITLE2=Blue Velvet (with Bobby Vinton)
TTITLE3=It's Only Make Believe (with Conway Twitty)
TTITLE4=Burning Bridges (with Jack Scott)
TTITLE5=Cry To Me
TTITLE6=Never Too Old To Rock And Roll (with Jerry Lee Lewis)
TTITLE7=Since I Don't Have You
TTITLE8=She's My Saturday Night Special - (with Wayne Newton)
TTITLE9=Smokey Places
EXTD=
EXTT0=
EXTT1=
EXTT2=
EXTT3=
EXTT4=
EXTT5=
EXTT6=
EXTT7=
EXTT8=
EXTT9=
PLAYORDER=
